<svg xmlns:xlink="http://www.w3.org/1999/xlink" xmlns="http://www.w3.org/2000/svg" class="logo-svg" viewBox="0 0 397.32 68.48" width="397.32"  height="68.48" >
<path class="logo-s" d="M109.28,31H20.36A11.85,11.85,0,0,1,8.31,19.37a11.84,11.84,0,0,1,12-11.63H121c1.48-.07,6.61-.78,6.69-7.29H20.31a18.92,18.92,0,1,0,0,37.83h88.92a11.64,11.64,0,1,1,.06,23.26H8.66c-1.36,0-6.71.65-6.79,7.29H109.29a18.92,18.92,0,1,0,0-37.83" fill="#FFFFFF"></path>
<path class="logo-p" d="M379.64.54H273.3a2.14,2.14,0,0,0-2.2,2.21V61.28A120.68,120.68,0,0,1,244,56.59c-6.62-1.85-14.79-4.35-17.91-5.32l-1.3-.4,1.36-.84h0a85.31,85.31,0,0,1,33.2-11.23h0c1.39-.11,1.22-1.84,1.22-1.84h0V32.85a1.19,1.19,0,0,0-1.36-1.24,96,96,0,0,0-15,2.86c-9.67,2.65-18.31,7.55-27.18,12a4.61,4.61,0,0,1-3.15.33c-10.71-3.5-29.54-9.84-39.14-13.14l-5.29-1.77-3.67-1.21h0a11.75,11.75,0,0,1-8.3-11.13,11.88,11.88,0,0,1,12-11.71h60.94c1.5-.07,6.65-.79,6.7-7.34H169.48A19,19,0,0,0,154.6,31.3a18.82,18.82,0,0,0,1.45,37.6h0l14.48,0h11.85a28.17,28.17,0,0,0,13.17-3.17c6.31-3.27,12.61-6.55,19-9.71a4.41,4.41,0,0,1,3-.24c4.1,1.24,8.17,2.61,12.21,4,11.93,4.2,24.1,7.88,36.76,8.65,2.64.16,5.25.39,7.85.47h1.43a2.28,2.28,0,0,0,2.51-2.27V38.72H379.62a19.09,19.09,0,0,0,0-38.18M206.21,52.13c-5.46,2.78-10.42,5.61-15.65,7.83a24.7,24.7,0,0,1-8.79,1.66l-1.69,0H157.59v0c-6.77,0-12.8-5.51-12.8-12.27,0-6.23,5.2-11.37,11.23-12.15a18.54,18.54,0,0,1,5.27-.15,20.62,20.62,0,0,1,2.15.38l.52.14,2.81.87c3.68,1.24,7.69,2.61,11.81,4l28,9.41-.4.21.06,0M379.58,31.39H278.28V7.87H379.64a12,12,0,0,1,12,11.8,11.89,11.89,0,0,1-12.06,11.72" fill="#FFFFFF"></path></svg>